<svg xmlns="http://www.w3.org/2000/svg" aria-hidden="true" style="position:absolute;width:0;height:0;overflow:hidden">
  <defs>
    <symbol id="burger" viewBox="0 0 32 32">
      <path d="M6.4 11.733V9.6h19.2v2.133H6.4zm0 5.334h19.2v-2.133H6.4v2.133zm0 5.333h19.2v-2.133H6.4V22.4z"/>
    </symbol>
    <symbol id="instagram" viewBox="0 0 32 32">
      <path d="M31.969 9.408c-.075-1.7-.35-2.869-.744-3.882a7.806 7.806 0 0 0-1.851-2.838A7.867 7.867 0 0 0 26.542.844C25.523.45 24.36.175 22.66.1 20.947.019 20.403 0 16.059 0s-4.888.019-6.595.094c-1.7.075-2.869.35-3.882.744a7.803 7.803 0 0 0-2.838 1.85A7.867 7.867 0 0 0 .9 5.52C.506 6.539.231 7.702.156 9.402c-.081 1.713-.1 2.257-.1 6.601s.019 4.888.094 6.595c.075 1.7.35 2.869.744 3.882a7.895 7.895 0 0 0 1.85 2.838 7.867 7.867 0 0 0 2.832 1.844c1.019.394 2.182.669 3.882.744 1.706.075 2.25.094 6.595.094s4.888-.019 6.595-.094c1.7-.075 2.869-.35 3.882-.744a8.184 8.184 0 0 0 4.682-4.682c.394-1.019.669-2.182.744-3.882.075-1.707.094-2.251.094-6.595s-.006-4.888-.081-6.595zm-2.882 13.065c-.069 1.563-.331 2.407-.55 2.969a5.31 5.31 0 0 1-3.038 3.038c-.563.219-1.413.481-2.969.55-1.688.075-2.194.094-6.464.094s-4.782-.019-6.464-.094c-1.563-.069-2.407-.331-2.969-.55a4.926 4.926 0 0 1-1.838-1.194 4.974 4.974 0 0 1-1.194-1.838c-.219-.563-.481-1.413-.55-2.969-.075-1.688-.094-2.194-.094-6.464s.019-4.782.094-6.464c.069-1.563.331-2.407.55-2.969a4.868 4.868 0 0 1 1.2-1.838A4.974 4.974 0 0 1 6.639 3.55c.563-.219 1.413-.481 2.969-.55 1.688-.075 2.194-.094 6.464-.094 4.276 0 4.782.019 6.464.094 1.563.069 2.407.331 2.969.55a4.914 4.914 0 0 1 1.838 1.194 4.974 4.974 0 0 1 1.194 1.838c.219.563.481 1.413.55 2.969.075 1.688.094 2.194.094 6.464s-.019 4.77-.094 6.458z"/>
      <path d="M16.059 7.783c-4.538 0-8.22 3.682-8.22 8.22s3.682 8.22 8.22 8.22c4.539 0 8.22-3.682 8.22-8.22s-3.682-8.22-8.22-8.22zm0 13.552a5.333 5.333 0 0 1 0-10.664 5.333 5.333 0 0 1 0 10.664zM26.524 7.458a1.919 1.919 0 1 1-3.838 0 1.919 1.919 0 0 1 3.838 0z"/>
    </symbol>
    <symbol id="twitter" viewBox="0 0 32 32">
      <path d="M32 6.078c-1.19.522-2.458.868-3.78 1.036a6.523 6.523 0 0 0 2.886-3.626 13.11 13.11 0 0 1-4.16 1.588A6.574 6.574 0 0 0 22.154 3c-3.632 0-6.556 2.948-6.556 6.562 0 .52.044 1.02.152 1.496-5.454-.266-10.28-2.88-13.522-6.862a6.605 6.605 0 0 0-.898 3.316 6.57 6.57 0 0 0 2.914 5.452 6.479 6.479 0 0 1-2.964-.808v.072c0 3.188 2.274 5.836 5.256 6.446a6.548 6.548 0 0 1-1.72.216 5.8 5.8 0 0 1-1.242-.112c.85 2.598 3.262 4.508 6.13 4.57a13.182 13.182 0 0 1-8.134 2.798c-.538 0-1.054-.024-1.57-.09A18.469 18.469 0 0 0 10.064 29c12.072 0 18.672-10 18.672-18.668 0-.29-.01-.57-.024-.848A13.087 13.087 0 0 0 32 6.078z"/>
    </symbol>
    <symbol id="facebook" viewBox="0 0 32 32">
      <path d="M21.329 5.313h2.921V.225C23.746.156 22.013 0 19.994 0c-4.212 0-7.097 2.649-7.097 7.519V12H8.249v5.688h4.648V32h5.699V17.689h4.46l.708-5.688h-5.169V8.082c.001-1.644.444-2.769 2.735-2.769z"/>
    </symbol>
    <symbol id="linkedin" viewBox="0 0 32 32">
      <path d="M31.992 32v-.001H32V20.263c0-5.741-1.236-10.164-7.948-10.164-3.227 0-5.392 1.771-6.276 3.449h-.093v-2.913h-6.364v21.364h6.627V21.42c0-2.785.528-5.479 3.977-5.479 3.399 0 3.449 3.179 3.449 5.657v10.401h6.62zM.528 10.636h6.635V32H.528V10.636zM3.843 0C1.722 0 0 1.721 0 3.843s1.721 3.879 3.843 3.879c2.121 0 3.843-1.757 3.843-3.879A3.846 3.846 0 0 0 3.843 0z"/>
    </symbol>
    <symbol id="client-1" viewBox="0 0 57 32">
      <path d="m19.733 2.667 3.897 3.69h10.872v10.292l3.897 3.69V2.668H19.732z"/>
      <path d="M16.533 6.201v17.166h18.133v-6.824L23.745 6.204 16.533 6.2zm14.679 14.655h-11.81V9.311h.835v10.764h10.975v.782zM21.755 26.551l.436-.898h.365l-.635 1.198v.698h-.331v-.698l-.637-1.198h.366l.436.898zm1.873.556h-.734l-.154.441h-.342l.716-1.896h.296l.717 1.896h-.344l-.155-.441zm-.642-.265h.549l-.275-.786-.275.786zm1.94.195c0-.088.024-.168.072-.241s.142-.161.283-.262c-.074-.093-.125-.172-.155-.237s-.043-.128-.043-.189c0-.148.045-.266.135-.352s.212-.13.365-.13c.138 0 .251.041.339.122s.133.181.133.301c0 .079-.02.152-.06.219s-.105.132-.197.198l-.129.094.366.432a.755.755 0 0 0 .079-.348h.275a.95.95 0 0 1-.164.574l.279.329h-.367l-.107-.126c-.135.102-.297.152-.484.152s-.338-.049-.451-.148a.498.498 0 0 1-.168-.389zm.627.285a.48.48 0 0 0 .299-.107l-.414-.488-.04.029c-.104.079-.156.169-.156.271 0 .088.028.159.085.214s.132.082.227.082zm-.174-1.221c0 .073.045.164.134.275l.145-.099.04-.033a.235.235 0 0 0 .081-.184c0-.049-.019-.092-.056-.126s-.085-.053-.142-.053c-.062 0-.111.021-.147.063s-.055.094-.055.158zm3.444.831c-.019.202-.094.36-.224.474s-.303.169-.52.169a.7.7 0 0 1-.666-.413 1.1 1.1 0 0 1-.098-.46v-.177c0-.179.032-.336.095-.473a.713.713 0 0 1 .683-.426c.209 0 .378.057.505.171s.202.274.223.482h-.328c-.016-.136-.056-.234-.12-.294s-.157-.091-.28-.091c-.143 0-.253.053-.331.158s-.115.257-.117.46v.168c0 .205.036.361.109.469s.181.161.323.161c.129 0 .227-.029.292-.087s.106-.155.124-.29h.328zm1.809-.282c0 .186-.032.349-.096.49a.725.725 0 0 1-.687.435c-.154 0-.291-.037-.411-.112s-.213-.183-.279-.322a1.136 1.136 0 0 1-.099-.48v-.107c0-.185.033-.348.098-.49a.726.726 0 0 1 .688-.437.725.725 0 0 1 .687.432c.065.139.098.301.099.486v.105zm-.33-.099c0-.21-.04-.371-.12-.483s-.191-.168-.337-.168c-.142 0-.254.056-.335.168s-.121.269-.122.473v.109c0 .208.04.369.121.483s.194.171.339.171c.146 0 .258-.056.336-.167s.119-.273.119-.487v-.099z"/>
    </symbol>
    <symbol id="client-2" viewBox="0 0 57 32">
      <path d="M26.654 3.698h.073c.135 0 .281.014.425.026.636.045 1.268.14 1.889.285V2.482a11.38 11.38 0 0 0-1.95-.311 15.84 15.84 0 0 0-.788-.038h-.228a15.9 15.9 0 0 0-3.913.504 15.836 15.836 0 0 0-4.151 1.689v15.145a16.858 16.858 0 0 1 3.957-1.542 17.273 17.273 0 0 1 3.322-.51h.045c.188-.009.375-.015.568-.016v-1.551a18.28 18.28 0 0 0-4.317.574c-.522.136-1.027.282-1.5.445l-.54.183V5.245l.231-.111a15.078 15.078 0 0 1 5.609-1.431.4.4 0 0 1 .049 0c.215-.011.43-.016.642-.016h.243c.112.003.224.005.336.012z"/>
      <path d="M30.459 5.297a13.679 13.679 0 0 1-2.258-.183c-.24-.041-.476-.09-.706-.142v14.971c.971.24 1.968.358 2.968.35a15.948 15.948 0 0 0 3.913-.503 15.943 15.943 0 0 0 4.153-1.688V3.227a16.897 16.897 0 0 1-3.956 1.543 16.84 16.84 0 0 1-4.114.528zm5.987.259.54-.182v11.813l-.231.111c-.885.421-1.809.753-2.759.991-1.154.298-2.34.452-3.531.457-.356 0-.71-.015-1.052-.045l-.37-.033V6.52l.43.028c.313.02.637.03.989.03a18.279 18.279 0 0 0 4.483-.575 23.639 23.639 0 0 0 1.5-.449zM19.06 24.647a.807.807 0 0 0-.601-.243.895.895 0 0 0-.347.065.778.778 0 0 0-.444.449.893.893 0 0 0-.062.335v2.023a.94.94 0 0 0 .08.415.718.718 0 0 0 .48.415c.098.028.2.042.302.042a.855.855 0 0 0 .838-.851v-.226h-.529v.18a.458.458 0 0 1-.031.18.315.315 0 0 1-.077.114.38.38 0 0 1-.222.077.266.266 0 0 1-.249-.109.479.479 0 0 1-.07-.271v-1.887a.643.643 0 0 1 .065-.302c.027-.043.066-.077.112-.098s.097-.03.147-.024a.28.28 0 0 1 .236.114c.059.078.09.173.088.271v.175h.524v-.206a.953.953 0 0 0-.242-.639zM22.202 24.624a.92.92 0 0 0-1.197 0 .82.82 0 0 0-.205.283.943.943 0 0 0-.077.392v1.941a.932.932 0 0 0 .077.397.791.791 0 0 0 .205.271.837.837 0 0 0 .279.171.897.897 0 0 0 .918-.171.849.849 0 0 0 .2-.271.934.934 0 0 0 .077-.397v-1.941a.943.943 0 0 0-.077-.392.867.867 0 0 0-.2-.283zm-.247 2.616a.355.355 0 0 1-.105.28.386.386 0 0 1-.498 0 .352.352 0 0 1-.105-.28v-1.941a.355.355 0 0 1 .105-.28.386.386 0 0 1 .498 0 .352.352 0 0 1 .105.28v1.941zM26.329 28.106v-3.674h-.509l-.668 1.945h-.009l-.673-1.945h-.503v3.674h.525v-2.235h.009l.514 1.58h.262l.518-1.58h.009v2.235h.525zM29.311 24.69a.727.727 0 0 0-.297-.201 1.168 1.168 0 0 0-.38-.057h-.78v3.674h.523v-1.435h.27a.964.964 0 0 0 .472-.1.759.759 0 0 0 .287-.281.875.875 0 0 0 .12-.32c.021-.138.03-.278.028-.418a2.107 2.107 0 0 0-.051-.525.785.785 0 0 0-.193-.338zm-.27 1.12a.45.45 0 0 1-.049.191.296.296 0 0 1-.135.129.538.538 0 0 1-.247.046h-.239v-1.249h.27a.506.506 0 0 1 .236.046.3.3 0 0 1 .123.136.537.537 0 0 1 .046.205v.244c0 .085.005.174 0 .252h-.005zM31.791 24.432h-.429l-.809 3.674h.523l.154-.789h.714l.154.789h.523l-.83-3.674zm-.483 2.385.258-1.332h.009l.256 1.332h-.523zM35.173 26.646h-.009l-.791-2.213h-.503v3.674h.523v-2.209h.011l.8 2.209h.492v-3.674h-.523v2.213zM38.372 24.432l-.421 1.461h-.011l-.421-1.461h-.554l.719 2.121v1.553h.524v-1.553l.719-2.121h-.554zM17.6 29.144h.252v.708h.171v-.708h.251v-.145h-.675v.145zM19.721 28.999l-.331.853h.182l.07-.194h.34l.073.194h.186l-.339-.853h-.182zm-.027.515.116-.316.116.316h-.232zM21.818 29.537h.197v.11a.332.332 0 0 1-.202.072c-.034.002-.069-.004-.1-.019s-.059-.036-.081-.063a.352.352 0 0 1-.063-.222c0-.19.082-.285.246-.285.043-.004.086.007.121.032s.061.062.072.104l.169-.033c-.036-.167-.156-.251-.362-.251a.426.426 0 0 0-.298.11.413.413 0 0 0-.122.328.465.465 0 0 0 .109.32.408.408 0 0 0 .324.125.511.511 0 0 0 .362-.136v-.336h-.37v.144zM23.959 28.999h-.173v.853h.598v-.145h-.425v-.708zM25.769 28.999h-.173v.853h.173v-.853zM27.539 29.568l-.349-.57h-.167v.853h.161v-.557l.343.557h.171v-.853h-.158v.57zM29.14 29.476h.425v-.145h-.425v-.187h.457v-.145h-.63v.853h.648v-.145h-.475v-.231zM33.02 29.335h-.336v-.336h-.171v.853h.171v-.373h.336v.373h.171v-.853h-.171v.336zM34.629 29.476h.426v-.145h-.426v-.187h.459v-.145h-.63v.853h.646v-.145h-.475v-.231zM36.813 29.476c.148-.023.224-.102.224-.237a.203.203 0 0 0-.084-.189.479.479 0 0 0-.25-.05h-.362v.853h.171v-.357h.034a.231.231 0 0 1 .107.019.181.181 0 0 1 .061.062l.186.271h.205l-.104-.167a.6.6 0 0 0-.189-.205zm-.173-.118h-.127v-.214h.135a.445.445 0 0 1 .174.02c.012.011.022.025.029.04s.01.032.009.049c-.001.017-.005.033-.013.048s-.019.027-.032.037a.486.486 0 0 1-.174.02zM38.458 29.476h.425v-.145h-.425v-.187h.459v-.145h-.631v.853h.648v-.145h-.475v-.231z"/>
    </symbol>
    <symbol id="client-3" viewBox="0 0 57 32">
      <path d="M20.451 27.09a.06.06 0 0 1 .042.018l.11.115a.89.89 0 0 1-.309.218 1.107 1.107 0 0 1-.438.078 1.073 1.073 0 0 1-.412-.073.884.884 0 0 1-.51-.526 1.147 1.147 0 0 1-.07-.409c-.002-.14.024-.279.075-.41a.945.945 0 0 1 .213-.319.984.984 0 0 1 .329-.208c.135-.05.279-.075.424-.073.135-.003.268.02.394.067.109.045.208.107.295.184l-.092.123a.08.08 0 0 1-.023.022.06.06 0 0 1-.037.009.082.082 0 0 1-.04-.013l-.049-.033-.069-.042a.758.758 0 0 0-.38-.087.815.815 0 0 0-.305.055.701.701 0 0 0-.239.154.722.722 0 0 0-.155.246.878.878 0 0 0-.056.324.9.9 0 0 0 .056.329c.034.09.085.173.152.244a.634.634 0 0 0 .228.152.76.76 0 0 0 .283.052c.056.001.112-.003.167-.01a.622.622 0 0 0 .362-.169.083.083 0 0 1 .052-.021zM23.62 26.512c.002.139-.023.276-.074.407-.045.118-.115.226-.207.316s-.202.161-.324.207a1.22 1.22 0 0 1-.834 0 .932.932 0 0 1-.53-.527 1.153 1.153 0 0 1 0-.814.966.966 0 0 1 .208-.32.959.959 0 0 1 .322-.2c.268-.099.566-.099.834 0a.953.953 0 0 1 .324.208c.09.091.161.198.207.315.051.131.076.27.074.409zm-.288 0a.937.937 0 0 0-.052-.327.642.642 0 0 0-.379-.398.889.889 0 0 0-.606 0 .65.65 0 0 0-.38.398c-.07.213-.07.441 0 .654a.64.64 0 0 0 .38.397.9.9 0 0 0 .606 0 .648.648 0 0 0 .379-.397.934.934 0 0 0 .052-.327zM25.782 26.855l.029.073.032-.073a.604.604 0 0 1 .036-.072l.701-1.214c.014-.021.026-.034.04-.038a.162.162 0 0 1 .058-.006h.207V27.5h-.246v-1.513a.771.771 0 0 1 0-.068l-.705 1.231a.11.11 0 0 1-.101.061h-.04c-.021 0-.042-.005-.06-.016s-.032-.027-.041-.045l-.726-1.239V27.497h-.237v-1.971h.207a.191.191 0 0 1 .058.006.074.074 0 0 1 .038.038l.716 1.215a.43.43 0 0 1 .036.071zM28.42 26.757v.74h-.274v-1.972h.612c.116-.002.231.012.342.043a.649.649 0 0 1 .241.123c.061.053.108.12.137.193a.66.66 0 0 1-.004.504.54.54 0 0 1-.148.197.682.682 0 0 1-.243.131 1.085 1.085 0 0 1-.331.046l-.332-.005zm0-.212h.332a.699.699 0 0 0 .213-.03.447.447 0 0 0 .154-.085.346.346 0 0 0 .093-.131.413.413 0 0 0 .033-.166c.003-.055-.006-.11-.028-.161s-.054-.097-.096-.135a.55.55 0 0 0-.369-.106h-.332v.813zM32.107 27.499h-.217a.097.097 0 0 1-.06-.018.116.116 0 0 1-.036-.046l-.187-.477h-.937l-.193.477a.102.102 0 0 1-.096.064h-.217l.823-1.975h.285l.834 1.975zm-1.358-.733h.774l-.326-.804a1.309 1.309 0 0 1-.062-.186l-.032.103c-.01.031-.021.06-.03.084l-.324.802zM33.292 25.534a.127.127 0 0 1 .041.035l1.2 1.489v-1.532h.246v1.975h-.137a.11.11 0 0 1-.056-.012.143.143 0 0 1-.044-.037l-1.199-1.487a.771.771 0 0 1 0 .068v1.468h-.246v-1.975h.145c.017 0 .034.003.049.009zM36.801 26.714v.784h-.274v-.784l-.759-1.189h.246a.095.095 0 0 1 .059.017.192.192 0 0 1 .037.044l.475.767a.739.739 0 0 1 .083.175l.036-.085a.642.642 0 0 1 .047-.09l.468-.772a.236.236 0 0 1 .036-.042.083.083 0 0 1 .059-.02h.248l-.76 1.195zM25.646 22.21c.119.014.24.026.362.037 1.851-.789 3.417-2.08 4.502-3.712s1.641-3.533 1.599-5.464l-2.04-1.943c.415 2.056.221 4.182-.56 6.14s-2.118 3.669-3.862 4.944z"/>
      <path d="m24.917 22.12.055.01c1.864-1.27 3.284-3.043 4.079-5.091s.926-4.275.377-6.394l-2.905-2.768c1.175 2.275 1.648 4.822 1.364 7.343s-1.314 4.914-2.969 6.9zM34.771 15.353c-.494 2.122-1.692 4.036-3.419 5.458-.504.417-1.048.789-1.624 1.111 1.406-.394 2.697-1.089 3.776-2.034s1.915-2.112 2.445-3.413l-1.178-1.121z"/>
      <path d="m34.309 15.04-1.678-1.598c-.032 1.822-.576 3.603-1.575 5.158s-2.417 2.826-4.106 3.681h.008c.376 0 .752-.022 1.126-.064 1.579-.614 2.973-1.59 4.059-2.843s1.83-2.741 2.165-4.334zM25.16 6.71l-2.002-1.909c-1.789.659-3.328 1.817-4.415 3.322s-1.672 3.289-1.677 5.117c.007 2.019.72 3.979 2.027 5.568s3.133 2.718 5.19 3.208c1.836-2.131 2.91-4.764 3.068-7.516s-.61-5.481-2.191-7.79zM38.933 14.746c-.007-2.396-1.009-4.692-2.788-6.386s-4.188-2.649-6.703-2.656a9.796 9.796 0 0 0-3.398.603l12.254 11.675a8.557 8.557 0 0 0 .634-3.236z"/>
    </symbol>
    <symbol id="client-4" viewBox="0 0 57 32">
      <path d="M13.548 11.643h-.001c-1.207 0-2.185.953-2.185 2.129v.001c0 1.176.978 2.129 2.185 2.129h.001c1.207 0 2.185-.953 2.185-2.129v-.001c0-1.176-.978-2.129-2.185-2.129zM29.673 10.962c-.003-1.633-.671-3.198-1.855-4.353S25.027 4.804 23.351 4.8c-1.676.003-3.283.653-4.469 1.808s-1.853 2.721-1.856 4.354v9.006s12.646-1.373 12.647-9.004v-.001zM6.933 22.924c.003 1.136.468 2.225 1.292 3.029s1.942 1.257 3.108 1.26c1.166-.003 2.283-.456 3.107-1.259s1.289-1.892 1.292-3.028V16.66s-8.799.956-8.799 6.265zm4.4 1.123c-.228 0-.451-.066-.64-.189s-.337-.299-.424-.504a1.102 1.102 0 0 1 .249-1.224c.161-.157.366-.264.59-.307s.455-.021.666.064c.21.085.39.229.517.413a1.099 1.099 0 0 1 .108 1.055 1.136 1.136 0 0 1-.623.61c-.14.056-.29.086-.442.086v-.004zM20.314 23.35h-.9v.93h-.469v-2.275h1.481v.38h-1.012v.588h.9v.378zm2.253-.156c0 .224-.04.42-.119.589a.893.893 0 0 1-.847.528c-.189 0-.357-.045-.505-.136s-.262-.22-.344-.387a1.344 1.344 0 0 1-.123-.581v-.112c0-.224.04-.421.12-.591a.895.895 0 0 1 .848-.529c.189 0 .358.046.505.137a.888.888 0 0 1 .342.392c.081.17.122.366.122.589v.102zm-.475-.103c0-.238-.043-.42-.128-.544s-.207-.186-.366-.186a.416.416 0 0 0-.364.184c-.085.122-.129.301-.13.538v.111c0 .232.043.412.128.541s.208.192.369.192a.415.415 0 0 0 .363-.184c.084-.124.127-.304.128-.541v-.111zm1.996.592a.237.237 0 0 0-.094-.203 1.203 1.203 0 0 0-.337-.15 2.418 2.418 0 0 1-.386-.156c-.258-.14-.387-.328-.387-.564 0-.123.034-.232.103-.328a.688.688 0 0 1 .298-.227c.13-.054.276-.081.438-.081.163 0 .307.03.434.089a.662.662 0 0 1 .401.614h-.469a.306.306 0 0 0-.098-.242.405.405 0 0 0-.277-.088.426.426 0 0 0-.267.073.225.225 0 0 0-.095.191c0 .074.037.136.111.186.075.05.185.097.33.141.267.08.461.18.583.298s.183.267.183.444a.55.55 0 0 1-.223.464c-.149.111-.349.167-.602.167-.175 0-.334-.032-.478-.095-.144-.065-.254-.153-.33-.264s-.113-.241-.113-.388h.47c0 .251.15.377.45.377a.442.442 0 0 0 .261-.067.222.222 0 0 0 .094-.191zm2.501-1.299h-.697v1.895h-.469v-1.895h-.687v-.38h1.853v.38zm1.638.91h-.9v.609h1.056v.377h-1.525v-2.275h1.522v.38h-1.053v.542h.9v.367zm1.273.153h-.373v.833h-.469v-2.275h.845c.269 0 .476.06.622.18s.219.289.219.508a.697.697 0 0 1-.102.389.689.689 0 0 1-.305.247l.492.93v.022h-.503l-.427-.833zm-.373-.38h.378c.118 0 .209-.03.273-.089a.321.321 0 0 0 .097-.248.343.343 0 0 0-.092-.253c-.06-.061-.154-.092-.28-.092h-.377v.683zm2.84.411v.802h-.469v-2.275h.887c.171 0 .321.031.45.094a.703.703 0 0 1 .405.659.655.655 0 0 1-.23.528c-.152.128-.363.192-.633.192h-.411zm0-.38h.419c.124 0 .218-.029.283-.088.066-.058.098-.142.098-.25 0-.111-.033-.202-.098-.27s-.156-.104-.272-.106h-.43v.714zm2.966.196h-.9v.609h1.056v.377h-1.525v-2.275h1.522v.38h-1.053v.542h.9v.367zm2.175-.91h-.697v1.895h-.469v-1.895h-.688v-.38h1.853v.38zm1.638.91h-.9v.609h1.056v.377h-1.525v-2.275h1.522v.38h-1.053v.542h.9v.367zm1.273.153h-.373v.833h-.469v-2.275h.845c.269 0 .476.06.622.18s.219.289.219.508a.697.697 0 0 1-.102.389.689.689 0 0 1-.305.247l.492.93v.022h-.503l-.427-.833zm-.373-.38h.378c.118 0 .209-.03.273-.089a.321.321 0 0 0 .097-.248.343.343 0 0 0-.092-.253c-.06-.061-.154-.092-.28-.092h-.377v.683zm2.754.616a.237.237 0 0 0-.094-.203 1.203 1.203 0 0 0-.337-.15 2.418 2.418 0 0 1-.386-.156c-.258-.14-.388-.328-.388-.564 0-.123.034-.232.103-.328a.688.688 0 0 1 .298-.227c.13-.054.276-.081.438-.081.163 0 .307.03.434.089a.654.654 0 0 1 .401.614H42.4a.306.306 0 0 0-.098-.242.405.405 0 0 0-.277-.088.426.426 0 0 0-.267.073.225.225 0 0 0-.095.191c0 .074.037.136.111.186.075.05.185.097.33.141.267.08.461.18.583.298s.183.267.183.444a.548.548 0 0 1-.223.464c-.149.111-.349.167-.602.167-.175 0-.334-.032-.478-.095a.773.773 0 0 1-.33-.264.678.678 0 0 1-.112-.388h.47c0 .251.15.377.45.377a.442.442 0 0 0 .261-.067.222.222 0 0 0 .094-.191z"/>
    </symbol>
    <symbol id="client-5" viewBox="0 0 57 32">
      <path d="M14.66 24.148a.836.836 0 0 1 .185.539.851.851 0 0 1-.286.681 1.235 1.235 0 0 1-.831.249h-1.461v-3.416h1.431c.283-.019.563.061.793.227a.787.787 0 0 1 .278.639.798.798 0 0 1-.166.522.775.775 0 0 1-.435.267.834.834 0 0 1 .494.292zm-1.714-.516h.612c.139.01.277-.03.389-.113a.419.419 0 0 0 .131-.334.413.413 0 0 0-.13-.333.588.588 0 0 0-.401-.115h-.602v.896zm1.061 1.31a.421.421 0 0 0 .145-.348.433.433 0 0 0-.148-.35.634.634 0 0 0-.416-.124h-.642v.94h.65a.65.65 0 0 0 .411-.118zM17.585 25.617l-.796-1.335h-.299v1.335h-.685v-3.416h1.296c.327-.023.65.081.902.29a1.089 1.089 0 0 1 .096 1.414c-.16.184-.378.307-.618.347l.848 1.365h-.745zm-1.095-1.801h.56c.389 0 .583-.172.583-.517a.522.522 0 0 0-.143-.384.607.607 0 0 0-.44-.139h-.567l.007 1.04zM21.328 24.929h-1.365l-.241.688h-.718l1.253-3.378h.776l1.248 3.378h-.718l-.236-.688zm-.183-.517-.499-1.442-.499 1.442h.997zM26.014 25.617h-.68l-1.524-2.323v2.323h-.678v-3.416h.678l1.524 2.336v-2.336h.68v3.416zM29.893 24.799a1.469 1.469 0 0 1-.615.602c-.296.15-.624.224-.956.215h-1.21V22.2h1.21a2.03 2.03 0 0 1 .956.21c.26.132.475.339.615.596a1.993 1.993 0 0 1 0 1.792zm-.778-.082a1.255 1.255 0 0 0 0-1.63 1.175 1.175 0 0 0-.851-.29h-.472v2.211h.472c.311.02.616-.085.851-.29zM21.754 3.2s8.774 3.326 8.588 8.139v8.14s-8.768-3.328-8.585-8.14L21.754 3.2zM38.159 17.573a11.999 11.999 0 0 1 5.575-2.063v-2.548a11.454 11.454 0 0 0-5.575 4.611z"/>
      <path d="M37.163 18.341a11.935 11.935 0 0 1 6.57-5.912V5.086S31.237 9.824 31.502 16.677v11.59s.557-.212 1.433-.609c0-.37 0-.744.04-1.12a12.058 12.058 0 0 1 4.188-8.197z"/>
      <path d="M35.975 22.646c.066-.804.212-1.599.437-2.373a11.221 11.221 0 0 0-2.646 7.001c.71-.342 1.536-.769 2.403-1.272a12.035 12.035 0 0 1-.194-3.356zM36.472 22.688a11.511 11.511 0 0 0 .155 3.039c3.414-2.051 7.25-5.22 7.102-9.05v-.334a11.187 11.187 0 0 0-6.495 3.047 11.463 11.463 0 0 0-.761 3.298z"/>
    </symbol>
    <symbol id="client-6" viewBox="0 0 57 32">
      <path d="M28.662 15.122a1.732 1.732 0 0 1-.304-1.097v-1.591c0-.488.101-.858.303-1.112s.548-.38 1.039-.379c.462 0 .789.108.983.324.211.275.314.612.291.952v.374h-.826v-.379a2.097 2.097 0 0 0-.024-.371.363.363 0 0 0-.118-.22.448.448 0 0 0-.299-.086.472.472 0 0 0-.315.091.432.432 0 0 0-.137.243 1.92 1.92 0 0 0-.032.393v1.931c-.013.186.023.373.106.542.041.057.098.103.165.131s.14.039.213.03a.42.42 0 0 0 .292-.087.397.397 0 0 0 .123-.235c.019-.128.028-.257.026-.387v-.392h.826v.358c.023.354-.077.705-.285 1-.19.236-.513.354-.988.354s-.834-.126-1.038-.388zM32.099 15.138c-.209-.248-.313-.608-.313-1.086v-1.673c0-.473.104-.83.313-1.073s.557-.364 1.046-.362c.485 0 .832.121 1.041.362.209.243.315.6.315 1.073v1.673c0 .473-.106.835-.318 1.084s-.557.374-1.038.374-.836-.126-1.046-.372zm1.431-.401a1 1 0 0 0 .099-.495v-2.049a.987.987 0 0 0-.097-.486c-.042-.059-.1-.105-.169-.133s-.144-.038-.218-.028a.416.416 0 0 0-.388.162.964.964 0 0 0-.099.486v2.058a1 1 0 0 0 .099.495.524.524 0 0 0 .598.123.5.5 0 0 0 .174-.123v-.01zM35.494 10.992h.889l.668 3.087.684-3.087h.865l.087 4.456h-.639l-.068-3.097-.66 3.097h-.513l-.684-3.108-.063 3.108h-.646l.08-4.456zM39.683 10.992h1.385c.798 0 1.196.422 1.196 1.265 0 .808-.42 1.211-1.26 1.21h-.472v1.98h-.855l.005-4.456zm1.183 1.905a.599.599 0 0 0 .47-.14.774.774 0 0 0 .123-.503 1.536 1.536 0 0 0-.041-.405c-.012-.044-.034-.086-.063-.122s-.066-.067-.108-.09a.817.817 0 0 0-.381-.071h-.332v1.332h.332zM43.496 10.992h.918l.942 4.456h-.796l-.186-1.027h-.819l-.191 1.027h-.808l.942-4.456zm.785 2.913-.32-1.87-.32 1.87h.639zM46.117 10.992h.598l1.145 2.542v-2.542h.709v4.456H48l-1.152-2.654v2.654h-.733l.002-4.456zM50.231 13.749l-.952-2.751h.802l.581 1.767.545-1.767h.785l-.94 2.751v1.699h-.82v-1.699zM29.981 17.397v.233h-.697v1.811h-.292V17.63h-.701v-.233h1.691zM32.168 19.441h-.226a.098.098 0 0 1-.063-.019.109.109 0 0 1-.038-.047l-.202-.485h-.968l-.202.485a.137.137 0 0 1-.031.055.094.094 0 0 1-.063.019h-.226l.855-2.044h.297l.865 2.036zm-1.416-.759h.807l-.342-.832a1.611 1.611 0 0 1-.063-.193l-.032.108-.031.086-.338.83zM33.641 19.24a.914.914 0 0 0 .298-.024c.042-.01.083-.022.123-.037.038-.015.075-.032.115-.05v-.46h-.342c-.008 0-.017-.001-.025-.004s-.015-.007-.021-.013c-.006-.005-.01-.01-.013-.017s-.004-.013-.004-.02v-.157h.663v.783a1.196 1.196 0 0 1-.361.167c-.07.019-.141.034-.214.042a2.313 2.313 0 0 1-.25.013 1.216 1.216 0 0 1-.431-.076.975.975 0 0 1-.562-.538 1.1 1.1 0 0 1-.079-.424c-.002-.146.024-.29.077-.427a.946.946 0 0 1 .562-.536c.146-.052.302-.078.458-.076.08 0 .159.006.238.018a1.08 1.08 0 0 1 .374.133c.052.032.102.068.149.107l-.082.126c-.006.012-.016.021-.028.028s-.025.011-.039.011a.11.11 0 0 1-.053-.016.891.891 0 0 1-.084-.049.703.703 0 0 0-.114-.055.968.968 0 0 0-.374-.063.924.924 0 0 0-.33.057.7.7 0 0 0-.41.416c-.076.221-.076.46 0 .681a.724.724 0 0 0 .171.257c.07.07.155.125.25.162a.88.88 0 0 0 .338.04zM36.365 19.207h.933v.233h-1.219v-2.044h.292l-.007 1.811zM38.27 19.44h-.292v-2.044h.292v2.044zM39.357 17.406a.143.143 0 0 1 .044.037l1.249 1.541a.445.445 0 0 1 0-.073v-1.522h.255v2.052h-.147a.122.122 0 0 1-.063-.011.157.157 0 0 1-.046-.039l-1.248-1.539v1.589h-.244v-2.044h.152c.016 0 .033.003.048.01zM43.057 17.397v.225h-1.036v.675h.839v.217h-.839v.698h1.036v.225H41.72v-2.039h1.337zM12.429 4.775l12.979 3.489v12.225l-12.979-3.487V4.775zm-.833-1.042v13.863l14.642 3.937V7.672L11.596 3.733z"/>
      <path d="M19.443 27.968 4.8 24.028V10.167l14.643 3.939v13.863zM11.839 4.618l12.809 3.445-5.448 5.159L6.389 9.775l5.449-5.157zm-.243-.885L4.8 10.167l14.643 3.938 6.794-6.434-14.642-3.938zM20.267 27.188l5.971-5.654-5.971-1.607v7.26z"/>
    </symbol>
  </defs>
</svg>
